<svg data-v-423bf9ae="" xmlns="http://www.w3.org/2000/svg" viewBox="0 0 368 90" class="iconLeft"><!----><!----><!----><g data-v-423bf9ae="" id="24621f06-3d87-4471-b45e-1ad052a578b2" fill="black" transform="matrix(5.976095640236052,0,0,5.976095640236052,76.23783526776927,11.414343546260753)"><path d="M4.59 10.64C6.72 10.64 7.88 9.51 7.88 7.06L7.88 1.09L7.39 1.09L7.39 7.03C7.39 9.18 6.45 10.18 4.59 10.18C3.00 10.18 1.76 9.17 1.76 7.14L1.76 1.09L1.26 1.09L1.26 7.15C1.26 9.53 2.72 10.64 4.59 10.64ZM15.33 10.50L15.81 10.50L15.81 5.60C15.81 3.72 14.80 3.14 13.45 3.14C12.14 3.14 11.28 3.98 11.03 5.07L11.00 3.28L10.56 3.28C10.58 4.07 10.58 4.42 10.58 5.03L10.58 10.50L11.06 10.50L11.06 6.43C11.06 4.55 12.05 3.56 13.36 3.56C14.48 3.56 15.33 4.05 15.33 5.66ZM18.47 10.50L18.96 10.50L18.96 3.28L18.47 3.28ZM18.40 1.39L19.03 1.39L19.03 0.60L18.40 0.60ZM28.62 5.68C28.62 8.43 27.17 10.05 24.54 10.05L21.98 10.05L21.98 1.53L24.35 1.53C26.88 1.53 28.62 2.87 28.62 5.68ZM29.12 5.67C29.12 2.58 27.13 1.09 24.37 1.09L21.48 1.09L21.48 10.50L24.57 10.50C27.41 10.50 29.12 8.81 29.12 5.67ZM33.66 10.64C35.31 10.64 35.87 9.97 36.36 8.99L35.91 8.85C35.46 9.74 35 10.22 33.67 10.22C31.92 10.22 31.18 8.86 31.18 7.04L31.18 6.93L36.44 6.93C36.44 6.89 36.46 6.57 36.46 6.52C36.46 4.68 35.88 3.14 33.64 3.14C31.91 3.14 30.66 4.21 30.66 6.87C30.66 9.17 31.60 10.64 33.66 10.64ZM33.64 3.54C35.27 3.54 35.94 4.62 35.94 6.37L35.94 6.51L31.18 6.51C31.22 4.33 32.33 3.54 33.64 3.54ZM43.48 10.50L43.96 10.50L43.96 5.60C43.96 3.72 42.95 3.14 41.61 3.14C40.29 3.14 39.44 3.98 39.19 5.07L39.16 3.28L38.71 3.28C38.74 4.07 38.74 4.42 38.74 5.03L38.74 10.50L39.21 10.50L39.21 6.43C39.21 4.55 40.21 3.56 41.51 3.56C42.63 3.56 43.48 4.05 43.48 5.66ZM45.71 3.67L46.70 3.67L46.70 9.42C46.70 10.08 46.93 10.64 47.91 10.64C48.33 10.64 48.47 10.63 48.76 10.61L48.76 10.18L48.08 10.18C47.42 10.18 47.18 10.00 47.18 9.32L47.18 3.67L48.72 3.67L48.72 3.28L47.18 3.28L47.18 1.23L46.70 1.23L46.70 3.28L45.71 3.28Z"></path></g><!----><g data-v-423bf9ae="" id="1a0f0b13-1702-48a6-9af5-617c7e408953" transform="matrix(1.0465027153316169,0,0,1.0465027153316169,-19.792212884764176,-6.325484814670027)" stroke="none" fill="black"><switch><g><path d="M61.605 16.816c-13.039 5.369-22.791-.305-22.887-.362a.498.498 0 1 0-.513.855c.103.063 2.596 1.539 6.786 2.337a28.07 28.07 0 0 0 5.224.485c3.339 0 7.364-.578 11.771-2.393a.497.497 0 0 0 .27-.65.5.5 0 0 0-.651-.272z"></path><path d="M70.562 7.845c-4.449-1.273-9.762-1.103-15.346.47-.311.087-.626.179-.949.272-1.947.565-4.156 1.204-6.201 1.204-1.098 0-2.047-.177-2.904-.543-2.566-1.094-6.132-1.722-9.783-1.722-4.109 0-7.745.792-10.24 2.229-2.374 1.368-4.089 3.653-4.959 6.609-.732 2.487-.847 5.397-.322 8.205.019 4.918 2.421 8.526 4.745 12.015 1.215 1.826 2.471 3.713 3.38 5.777 1.383 3.137 2.016 6.076 1.879 8.733-.059 1.133-.183 2.283-.303 3.393-.185 1.701-.374 3.458-.342 5.246.134 7.311 1.935 15.186 5.352 23.406a76.306 76.306 0 0 0 3.14 6.658l.079.148c.6 1.129 1.28 2.408 3.043 2.564a1.958 1.958 0 0 0 1.641-.615c1.697-1.754 1.516-7.215 1.286-14.125-.329-9.869-.739-22.15 5.007-23.148 3.055-.529 5.497 1.276 6.568 4.799 2.094 6.877 1.545 15.084 1.144 21.076a45.54 45.54 0 0 1-.133 1.379c-.446 4.275-.806 8.969.608 10.537.343.385.788.588 1.28.588.532 0 1.103-.229 1.741-.699 2.66-1.961 4.075-5.426 5.192-8.52 1.605-4.445 2.566-9.004 3.225-12.48l.165-.869c.965-5.076 1.962-10.324 2.067-15.457a.44.44 0 0 0-.003-.082c-.562-5.419.804-11.481 4.055-18.017a85.25 85.25 0 0 1 1.644-3.09c1.462-2.656 2.972-5.4 3.695-8.653 1.829-8.202-1.97-15.149-9.451-17.288zm8.153 16.999c-.682 3.067-2.08 5.608-3.561 8.301a82.01 82.01 0 0 0-1.67 3.14c-3.357 6.747-4.768 13.039-4.19 18.702-.108 5.01-1.091 10.189-2.045 15.195l-.165.871c-.648 3.428-1.598 7.92-3.168 12.275-1.051 2.912-2.371 6.164-4.732 7.902-.518.383-.818.439-.951.439-.084 0-.18-.018-.295-.146-1.134-1.258-.508-7.252-.272-9.508.063-.611.114-1.092.137-1.428.409-6.096.968-14.443-1.196-21.555-1.113-3.652-3.65-5.833-6.789-5.833-.416 0-.846.038-1.279.112-6.887 1.197-6.475 13.578-6.111 24.502.195 5.807.395 11.809-.91 13.158a.647.647 0 0 1-.566.215c-.998-.09-1.387-.732-1.988-1.863l-.08-.154a74.637 74.637 0 0 1-3.084-6.541c-3.354-8.066-5.121-15.775-5.252-22.918-.029-1.706.156-3.422.334-5.079.123-1.129.249-2.298.311-3.468.098-1.903-.174-3.932-.791-6.053 1.094 1.514 2.055 2.723 2.703 3.375a.498.498 0 1 0 .707-.703c-.91-.916-2.838-3.45-5.008-6.774-.902-1.84-2.006-3.53-3.093-5.16-2.324-3.494-4.521-6.792-4.521-11.342a.643.643 0 0 0-.012-.124c-1.366-7.189 1.639-11.75 4.628-13.473C28.1 9.585 31.5 8.857 35.379 8.857c3.428 0 6.815.8 9.263 1.615 1.149.382 1.475.442 2.673.618 3.996 1.11 6.198 1.244 10.703 1.431h.022a.499.499 0 0 0 .018-.997c-3.117-.129-5.11-.234-7.38-.663 1.37-.248 2.716-.637 3.961-.998.317-.092.632-.184.937-.27 5.345-1.503 10.412-1.673 14.621-.47 6.76 1.932 10.184 8.251 8.518 15.721z"></path></g></switch></g><!----></svg>