<svg data-v-423bf9ae="" xmlns="http://www.w3.org/2000/svg" viewBox="0 0 283.8645429112125 60" class="font"><!----><!----><!----><g data-v-423bf9ae="" id="8c428445-2d9f-45a1-96a7-a6df4a83cf42" fill="black" transform="matrix(5.976095640236052,0,0,5.976095640236052,-7.529880186332292,-3.58565836108788)"><path d="M4.59 10.64C6.72 10.64 7.88 9.51 7.88 7.06L7.88 1.09L7.39 1.09L7.39 7.03C7.39 9.18 6.45 10.18 4.59 10.18C3.00 10.18 1.76 9.17 1.76 7.14L1.76 1.09L1.26 1.09L1.26 7.15C1.26 9.53 2.72 10.64 4.59 10.64ZM15.33 10.50L15.81 10.50L15.81 5.60C15.81 3.72 14.80 3.14 13.45 3.14C12.14 3.14 11.28 3.98 11.03 5.07L11.00 3.28L10.56 3.28C10.58 4.07 10.58 4.42 10.58 5.03L10.58 10.50L11.06 10.50L11.06 6.43C11.06 4.55 12.05 3.56 13.36 3.56C14.48 3.56 15.33 4.05 15.33 5.66ZM18.47 10.50L18.96 10.50L18.96 3.28L18.47 3.28ZM18.40 1.39L19.03 1.39L19.03 0.60L18.40 0.60ZM28.62 5.68C28.62 8.43 27.17 10.05 24.54 10.05L21.98 10.05L21.98 1.53L24.35 1.53C26.88 1.53 28.62 2.87 28.62 5.68ZM29.12 5.67C29.12 2.58 27.13 1.09 24.37 1.09L21.48 1.09L21.48 10.50L24.57 10.50C27.41 10.50 29.12 8.81 29.12 5.67ZM33.66 10.64C35.31 10.64 35.87 9.97 36.36 8.99L35.91 8.85C35.46 9.74 35 10.22 33.67 10.22C31.92 10.22 31.18 8.86 31.18 7.04L31.18 6.93L36.44 6.93C36.44 6.89 36.46 6.57 36.46 6.52C36.46 4.68 35.88 3.14 33.64 3.14C31.91 3.14 30.66 4.21 30.66 6.87C30.66 9.17 31.60 10.64 33.66 10.64ZM33.64 3.54C35.27 3.54 35.94 4.62 35.94 6.37L35.94 6.51L31.18 6.51C31.22 4.33 32.33 3.54 33.64 3.54ZM43.48 10.50L43.96 10.50L43.96 5.60C43.96 3.72 42.95 3.14 41.61 3.14C40.29 3.14 39.44 3.98 39.19 5.07L39.16 3.28L38.71 3.28C38.74 4.07 38.74 4.42 38.74 5.03L38.74 10.50L39.21 10.50L39.21 6.43C39.21 4.55 40.21 3.56 41.51 3.56C42.63 3.56 43.48 4.05 43.48 5.66ZM45.71 3.67L46.70 3.67L46.70 9.42C46.70 10.08 46.93 10.64 47.91 10.64C48.33 10.64 48.47 10.63 48.76 10.61L48.76 10.18L48.08 10.18C47.42 10.18 47.18 10.00 47.18 9.32L47.18 3.67L48.72 3.67L48.72 3.28L47.18 3.28L47.18 1.23L46.70 1.23L46.70 3.28L45.71 3.28Z"></path></g><!----><!----></svg>